<svg viewBox="0 0 200 224" xmlns="http://www.w3.org/2000/svg" role="img" aria-label="Meli, the Melete mascot">
  <defs>
    <linearGradient id="mbody" x1="0.1" y1="0" x2="0.9" y2="1"><stop offset="0" stop-color="#7d6df6"/><stop offset="0.55" stop-color="#5b53e8"/><stop offset="1" stop-color="#0ea5b7"/></linearGradient>
    <radialGradient id="mgloss" cx="0.36" cy="0.24" r="0.55"><stop offset="0" stop-color="#ffffff" stop-opacity="0.55"/><stop offset="1" stop-color="#ffffff" stop-opacity="0"/></radialGradient>
    <radialGradient id="orbG" cx="0.4" cy="0.34" r="0.72"><stop offset="0" stop-color="#fffdf0"/><stop offset="0.5" stop-color="#fcd34d"/><stop offset="1" stop-color="#f59e0b"/></radialGradient>
    <filter id="msoft" x="-40%" y="-40%" width="180%" height="180%"><feGaussianBlur stdDeviation="7"/></filter>
    <filter id="mglow" x="-90%" y="-90%" width="280%" height="280%"><feGaussianBlur stdDeviation="5.5" result="b"/><feMerge><feMergeNode in="b"/><feMergeNode in="SourceGraphic"/></feMerge></filter>
  </defs>
  <ellipse cx="100" cy="210" rx="56" ry="11" fill="#16172b" opacity="0.10"/>
  <path class="ant" d="M104 70 C 120 44, 142 46, 148 22" stroke="#0ea5b7" stroke-width="5" fill="none" stroke-linecap="round"/>
  <g class="orb" filter="url(#mglow)"><circle cx="150" cy="18" r="13" fill="url(#orbG)"/><circle cx="145" cy="13" r="3.4" fill="#fff" opacity="0.9"/></g>
  <path class="spark s1" d="M172 34 l2.2 6.4 6.4 2.2 -6.4 2.2 -2.2 6.4 -2.2 -6.4 -6.4 -2.2 6.4 -2.2 z" fill="#fcd34d"/>
  <path class="spark s2" d="M128 6 l1.6 4.6 4.6 1.6 -4.6 1.6 -1.6 4.6 -1.6 -4.6 -4.6 -1.6 4.6 -1.6 z" fill="#67e8f9"/>
  <g filter="url(#msoft)" opacity="0.45"><path d="M100 60 C 148 60, 168 96, 166 130 C 164 170, 134 196, 100 196 C 66 196, 36 170, 34 130 C 32 96, 52 60, 100 60 Z" fill="#4338ca"/></g>
  <ellipse cx="78" cy="196" rx="16" ry="9" fill="#4f46d6"/><ellipse cx="122" cy="196" rx="16" ry="9" fill="#4f46d6"/>
  <ellipse class="arm" cx="162" cy="120" rx="11" ry="21" fill="url(#mbody)" transform="rotate(-30 162 120)"/>
  <ellipse cx="38" cy="142" rx="11" ry="21" fill="url(#mbody)" transform="rotate(26 38 142)"/>
  <path d="M100 54 C 150 54, 168 92, 166 128 C 164 168, 134 194, 100 194 C 66 194, 36 168, 34 128 C 32 92, 50 54, 100 54 Z" fill="url(#mbody)"/>
  <ellipse cx="88" cy="116" rx="50" ry="46" fill="url(#mgloss)"/>
  <ellipse cx="100" cy="152" rx="42" ry="34" fill="#ffffff" opacity="0.10"/>
  <g class="eyes">
    <ellipse cx="80" cy="120" rx="14.5" ry="16.5" fill="#fff"/><ellipse cx="120" cy="120" rx="14.5" ry="16.5" fill="#fff"/>
    <circle cx="83" cy="124" r="7.2" fill="#1a1b30"/><circle cx="123" cy="124" r="7.2" fill="#1a1b30"/>
    <circle cx="86" cy="120.5" r="2.7" fill="#fff"/><circle cx="126" cy="120.5" r="2.7" fill="#fff"/>
    <circle cx="80" cy="127" r="1.4" fill="#fff" opacity="0.7"/><circle cx="120" cy="127" r="1.4" fill="#fff" opacity="0.7"/>
  </g>
  <path d="M84 146 Q100 160 116 146" stroke="#1a1b30" stroke-width="5" fill="none" stroke-linecap="round"/>
  <ellipse cx="62" cy="140" rx="7.5" ry="4.6" fill="#ff8fb1" opacity="0.55"/><ellipse cx="138" cy="140" rx="7.5" ry="4.6" fill="#ff8fb1" opacity="0.55"/>
</svg>